<svg width="98" height="98" xmlns="http://www.w3.org/2000/svg"><g fill-rule="nonzero" fill="none"><path d="M21.81 7.254h69.128V.432H21.762C9.944.432.384 9.992.384 21.81v69.128h6.822V21.81c.048-8.023 6.533-14.556 14.604-14.556z" fill="#E3303D"/><path d="M90.938 7.254v69.128c0 8.023-6.533 14.556-14.556 14.556H7.254v6.822h69.032c11.866 0 21.474-9.608 21.474-21.474V7.254h-6.822z" fill="#3FA9F5"/><path d="M90.938 76.334V7.254H21.81c-8.023 0-14.556 6.533-14.556 14.556v69.128h69.128c8.023 0 14.556-6.533 14.556-14.604z" fill="#023185"/><g fill="#FFF"><path d="M47.078 27.863h-5.092s-1.777 0-1.777 1.681v3.075s-.096 1.729 1.73 1.729h5.14v-1.681h-4.564s-.529.048-.529-.577v-2.017s-.048-.529.529-.529h4.563v-1.681zM54.717 27.863H49.24s-1.73 0-1.73 1.681v3.075s-.095 1.729 1.73 1.729h5.477v-1.681h-4.948s-.529.048-.529-.577v-2.017s-.048-.529.529-.529h4.948v-1.681z"/><path d="M50.441 31.898h4.276v-1.393H50.44zM67.063 31.898h4.227v-1.393h-4.227zM61.826 27.863h-6.58v6.533h1.729v-4.804h1.537v4.804h1.73v-4.804h1.536v4.804h1.73v-4.852s.096-1.681-1.682-1.681M80.081 27.863h-1.825v.96l-2.306 1.298-2.354-1.297v-.961h-1.825v1.681l2.45 1.585-2.45 1.586v1.681h1.825v-.913l2.354-1.345 2.306 1.345v.913h1.825v-1.681l-2.402-1.586 2.402-1.585z"/><path d="M71.29 27.863h-5.476s-1.73 0-1.73 1.681v3.075s-.096 1.729 1.73 1.729h5.476v-1.681h-4.948s-.528.048-.528-.577v-2.017s0-.529.528-.529h4.948v-1.681zM24.548 34.396l13.547-16.19h-5.86l-6.774 8.12-6.822 8.07zM33.34 34.396l13.546-16.19h-5.86l-6.774 8.12-6.774 8.07z"/></g><g fill="#FFF"><path d="M46.55 74.845c-1.345 1.585-3.219 2.834-5.669 3.7-2.45.864-5.14 1.344-8.118 1.344-3.123 0-5.861-.672-8.215-2.017-2.354-1.346-4.18-3.315-5.428-5.91-1.297-2.593-1.922-5.62-1.97-9.127v-2.45c0-3.603.625-6.677 1.825-9.32 1.201-2.641 2.979-4.66 5.237-6.052 2.258-1.393 4.948-2.066 8.022-2.066 4.276 0 7.59 1.009 9.992 3.075 2.402 2.017 3.844 4.996 4.276 8.887h-7.206c-.336-2.066-1.057-3.555-2.21-4.516-1.105-.96-2.69-1.441-4.66-1.441-2.498 0-4.42.96-5.764 2.834-1.297 1.874-1.97 4.708-2.018 8.455v2.306c0 3.795.72 6.63 2.162 8.551 1.441 1.922 3.555 2.882 6.293 2.882 2.786 0 4.756-.576 5.957-1.777v-6.197H32.33v-5.477h14.172v14.316h.048zM80.994 62.21c0 3.556-.624 6.63-1.873 9.32-1.25 2.69-3.027 4.708-5.38 6.197-2.355 1.442-4.997 2.162-8.023 2.162-2.979 0-5.62-.72-7.975-2.162-2.354-1.44-4.131-3.458-5.428-6.149-1.297-2.642-1.922-5.716-1.97-9.175v-1.778c0-3.554.625-6.677 1.922-9.367 1.297-2.69 3.074-4.756 5.428-6.197 2.354-1.441 4.996-2.162 7.975-2.162 2.978 0 5.668.72 7.974 2.162 2.354 1.441 4.131 3.507 5.429 6.197 1.297 2.69 1.921 5.813 1.921 9.32v1.633zm-7.542-1.633c0-3.795-.673-6.629-2.018-8.599-1.345-1.97-3.266-2.93-5.764-2.93s-4.42.96-5.765 2.882c-1.345 1.922-2.018 4.756-2.066 8.503v1.778c0 3.65.673 6.533 2.018 8.55 1.345 2.018 3.315 3.027 5.813 3.027 2.498 0 4.42-.96 5.716-2.93 1.345-1.97 2.018-4.804 2.018-8.551v-1.73h.048z"/></g></g></svg>